<svg xmlns="http://www.w3.org/2000/svg" width="86" height="86" viewBox="0 0 86 86"><defs><mask id="y7t6b" width="2" height="2" x="-1" y="-1"><path fill="#fff" d="M18 8h50v50H18z"/><path d="M43 8c13.807 0 25 11.193 25 25S56.807 58 43 58 18 46.807 18 33 29.193 8 43 8z"/></mask><filter id="y7t6a" width="106" height="116" x="-10" y="-20" filterUnits="userSpaceOnUse"><feOffset dy="10" in="SourceGraphic" result="FeOffset1030Out"/><feGaussianBlur in="FeOffset1030Out" result="FeGaussianBlur1031Out" stdDeviation="7.2 7.2"/></filter></defs><g><g><g filter="url(#y7t6a)"><path fill="none" d="M43 8c13.807 0 25 11.193 25 25S56.807 58 43 58 18 46.807 18 33 29.193 8 43 8z" mask="url(&quot;#y7t6b&quot;)"/><path fill="#ba0000" fill-opacity=".4" d="M43 8c13.807 0 25 11.193 25 25S56.807 58 43 58 18 46.807 18 33 29.193 8 43 8z"/></g><path fill="#ba0000" d="M43 8c13.807 0 25 11.193 25 25S56.807 58 43 58 18 46.807 18 33 29.193 8 43 8z"/></g><g><g><text dominant-baseline="text-before-edge" style="text-transform:uppercase;line-height:24px" fill="#fff" font-family="'FontAwesome','FontAwesome'" font-size="14" font-style="none" font-weight="400" transform="translate(36 25)"><tspan style="font-kerning:normal" letter-spacing=".42"></tspan></text></g></g></g></svg>